<?xml version="1.0" encoding="utf-8"?>
<!-- Generator: Adobe Illustrator 25.4.1, SVG Export Plug-In . SVG Version: 6.00 Build 0)  -->
<svg version="1.1" id="Layer_1" xmlns="http://www.w3.org/2000/svg" xmlns:xlink="http://www.w3.org/1999/xlink" x="0px" y="0px"
	 viewBox="0 0 579.02 439.55" style="enable-background:new 0 0 579.02 439.55;" xml:space="preserve">
<style type="text/css">
	.st0{fill:#FFFFFF;}
	.st1{opacity:0.65;fill:#FFFFFF;}
	.st2{opacity:0.45;fill:#FFFFFF;}
</style>
<g>
	<g>
		<g>
			<path class="st0" d="M568.51,392.94c-5.8,0-10.51,4.7-10.51,10.51c0,5.81,4.71,10.51,10.51,10.51c5.8,0,10.51-4.7,10.51-10.51
				S574.32,392.94,568.51,392.94z M568.51,411.85c-4.64,0-8.41-3.77-8.41-8.41c0-4.64,3.77-8.41,8.41-8.41s8.41,3.77,8.41,8.41
				C576.92,408.08,573.15,411.85,568.51,411.85z"/>
			<path class="st0" d="M572.91,401.44c0-1.91-1.33-3.05-3.82-3.05h-4.4v10.13h1.71v-4.01h1.34l3.25,4.01h2.1l-3.44-4.01
				C571.77,404.3,572.91,403.16,572.91,401.44z M566.41,403.16v-3.06h2.68c1.33,0,2.1,0.57,2.1,1.53c0,0.95-0.77,1.53-2.1,1.53
				H566.41z"/>
		</g>
		<polygon class="st0" points="36.6,394.14 20.26,345.26 0,345.26 24.97,413.63 46.28,413.63 71.11,345.26 52.81,345.26 		"/>
		<path class="st0" d="M134.74,371.14c-9.93-1.44-13.2-3.14-13.2-7.45c0-4.19,3.53-7.06,9.67-7.06c3.27,0,5.69,0.66,7.42,2.01
			c1.74,1.36,2.78,3.41,3.3,6.23h17.38c-1.7-15.69-13.07-21.17-28.23-21.17c-13.99,0-27.06,7.06-27.06,21.3
			c0,13.33,7.06,18.56,25.22,21.31c9.8,1.44,13.86,3.4,13.86,8.1c0,4.71-3.4,7.45-10.72,7.45c-4.11,0-6.93-0.88-8.81-2.53
			c-1.88-1.65-2.83-4.07-3.22-7.14h-17.65c0.66,14.77,11.37,22.88,29.8,22.88c18.04,0,28.76-7.71,28.76-22.48
			C161.28,377.94,151.86,373.63,134.74,371.14z"/>
		<path class="st0" d="M190.51,391.82l0.01-33.11h14.34v-13.43h-14.34l-0.01-15.36h-18.78l0.01,15.36H163v13.43h8.74l-0.01,34.8
			c0,14.22,7.69,21.52,22.04,21.52c5.08,0,8.87-0.91,11.47-1.82V398.6c-2.22,0.91-4.3,1.3-7.17,1.3
			C193.25,399.9,190.51,397.29,190.51,391.82z"/>
		<path class="st0" d="M263.24,355.4c-2.96-5.42-10.47-11.71-22.79-11.71c-18.97,0-33.74,14.3-33.74,35.6
			c0,19.08,12.07,35.74,33.74,35.74c9.48,0,18.47-3.72,22.79-11.6v10.19h17.36v-68.35h-17.36V355.4z M263.64,380.56
			c-0.29,3.42-1.28,6.7-3.27,9.7c-2.98,4.65-8.09,8.47-16.47,8.47c-14.19,0-19.58-12.03-19.58-19v-0.14
			c0-8.61,5.96-19.54,19.45-19.54c9.94,0,15.33,5.33,17.88,10.52C263.22,373.72,263.93,377.13,263.64,380.56z"/>
		<rect x="77.74" y="345.27" class="st0" width="18.74" height="68.36"/>
		<path class="st0" d="M85.96,317.66c-4.92,0.49-8.89,4.46-9.38,9.38c-0.66,6.64,4.88,12.18,11.53,11.53
			c4.92-0.49,8.9-4.47,9.38-9.38C98.15,322.54,92.61,317,85.96,317.66z"/>
		<path class="st0" d="M378.04,344.6h10.86v12.3c4.32-7.72,10.21-13.09,22.51-13.48v10.21c-13.74,0.65-22.51,4.97-22.51,21.85v37.56
			h-10.86V344.6z"/>
		<path class="st0" d="M419.31,328.14c0-3.93,3.27-7.2,7.2-7.2c3.93,0,7.2,3.27,7.2,7.2c0,3.93-3.27,7.2-7.2,7.2
			C422.58,335.33,419.31,332.06,419.31,328.14z M421.27,344.6h10.86v68.44h-10.86V344.6z"/>
		<path class="st0" d="M448.15,344.6h10.86v10.86c3.14-6.41,10.73-12.04,21.99-12.04c14.13,0,24.08,7.72,24.08,27.61v42.01h-10.86
			v-42.79c0-12.04-5.1-17.41-16.1-17.41c-10.08,0-19.11,6.41-19.11,18.71v41.48h-10.86V344.6z"/>
		<path class="st0" d="M520.27,395.9v-42.14h-9.82v-9.16h9.82v-15.57h10.86v15.57h15.97v9.16h-15.97v41.09
			c0,6.67,3.01,9.95,8.51,9.95c3.4,0,6.02-0.52,8.38-1.44v9.16c-2.23,0.79-4.84,1.44-9.29,1.44
			C526.29,413.96,520.27,406.63,520.27,395.9z"/>
		<path class="st0" d="M309.97,344.6l0,10.53l0,0c6.23-7.33,14.25-11.72,24.14-11.72c21.43,0,35.29,14.88,35.29,35.58
			c0,20.51-14.41,35.06-33.65,35.06c-12.27,0-21.76-5.07-25.97-12.76l0,0v38.27h-10.84V344.6H309.97z M334.14,404.82
			c14.71,0,24.16-11.04,24.16-25.33c0-15.78-9.45-27.06-24.16-27.06c-14.71,0-24.36,11.53-24.36,27.06
			C309.78,393.96,319.43,404.82,334.14,404.82z"/>
	</g>
	<g>
		<path class="st0" d="M289.85,273.48l-68.77-120.33h137.57L289.85,273.48z"/>
		<path class="st1" d="M358.62,153.17H221.05l68.77-120.34L358.62,153.17z"/>
		<path class="st0" d="M308.6,0h137.57l-87.54,153.17L289.84,32.83L308.6,0z"/>
		<path class="st2" d="M271.08,0l18.75,32.83l-68.77,120.34L133.51,0H271.08z"/>
	</g>
</g>
</svg>
